<?xml version="1.0" encoding="UTF-8" standalone="no"?>
<!-- Created with Inkscape (http://www.inkscape.org/) -->

<svg
   xmlns:dc="http://purl.org/dc/elements/1.1/"
   xmlns:cc="http://creativecommons.org/ns#"
   xmlns:rdf="http://www.w3.org/1999/02/22-rdf-syntax-ns#"
   xmlns:svg="http://www.w3.org/2000/svg"
   xmlns="http://www.w3.org/2000/svg"
   xmlns:xlink="http://www.w3.org/1999/xlink"
   xmlns:sodipodi="http://sodipodi.sourceforge.net/DTD/sodipodi-0.dtd"
   xmlns:inkscape="http://www.inkscape.org/namespaces/inkscape"
   version="1.1"
   width="4096"
   height="4096"
   id="svg2"
   sodipodi:docname="metro-rio-logo-2.svg"
   inkscape:export-filename="G:\Users\suitedoalex\sites\svg\metro-rio-logo-0.png"
   inkscape:export-xdpi="96"
   inkscape:export-ydpi="96"
   inkscape:version="0.92.2 (5c3e80d, 2017-08-06)">
  <sodipodi:namedview
     pagecolor="#ffffff"
     bordercolor="#666666"
     borderopacity="1"
     objecttolerance="10"
     gridtolerance="10"
     guidetolerance="10"
     inkscape:pageopacity="0"
     inkscape:pageshadow="2"
     inkscape:window-width="1600"
     inkscape:window-height="837"
     id="namedview30"
     showgrid="false"
     inkscape:zoom="0.023971806"
     inkscape:cx="6866.3911"
     inkscape:cy="8454.4033"
     inkscape:window-x="-8"
     inkscape:window-y="-8"
     inkscape:window-maximized="1"
     inkscape:current-layer="svg2" />
  <defs
     id="defs4">
    <linearGradient
       x1="59.777348"
       y1="2.0943375"
       x2="59.777348"
       y2="110.79292"
       id="linearGradient3781"
       xlink:href="#linearGradient3775"
       gradientUnits="userSpaceOnUse" />
    <linearGradient
       id="linearGradient3775">
      <stop
         id="stop3777"
         style="stop-color:#ffffff;stop-opacity:1"
         offset="0" />
      <stop
         id="stop3797"
         style="stop-color:#017bc2;stop-opacity:1"
         offset="0.36270648" />
      <stop
         id="stop3783"
         style="stop-color:#017bc2;stop-opacity:1"
         offset="0.63469803" />
      <stop
         id="stop3779"
         style="stop-color:#ffffff;stop-opacity:1"
         offset="1" />
    </linearGradient>
    <linearGradient
       x1="59.777348"
       y1="2.0943375"
       x2="59.777348"
       y2="110.79292"
       id="linearGradient4136"
       xlink:href="#linearGradient3775"
       gradientUnits="userSpaceOnUse" />
  </defs>
  <metadata
     id="metadata7">
    <rdf:RDF>
      <cc:Work
         rdf:about="">
        <dc:format>image/svg+xml</dc:format>
        <dc:type
           rdf:resource="http://purl.org/dc/dcmitype/StillImage" />
        <dc:title></dc:title>
      </cc:Work>
    </rdf:RDF>
  </metadata>
  <g
     transform="matrix(8.9426693,0,0,8.9426693,63.060126,-980.39003)"
     id="g2999"
     style="display:inline"
     inkscape:export-xdpi="5.3409448"
     inkscape:export-ydpi="5.3409448">
    <path
       d="m 297.19635,319.875 c -5.44904,0 -10.56074,4.14914 -11.40378,9.25 l -2.58755,15.65625 c -0.84303,5.10086 2.89719,9.25 8.34623,9.25 h 15.03125 c 5.44904,0 10.56074,-4.14914 11.40377,-9.25 l 2.58755,-15.65625 c 0.84304,-5.10086 -2.89718,-9.25 -8.34622,-9.25 z m 0.54504,6.15625 h 11.90625 c 1.52909,0 2.5743,1.25216 2.32158,2.78125 l -2.69084,16.28125 c -0.25272,1.52909 -1.71183,2.78125 -3.24092,2.78125 h -11.90625 c -1.52909,0 -2.5743,-1.25216 -2.32158,-2.78125 l 2.69084,-16.28125 c 0.25272,-1.52909 1.71183,-2.78125 3.24092,-2.78125 z"
       id="rect3960"
       style="fill:#000000;fill-opacity:1;stroke:none"
       inkscape:connector-curvature="0" />
    <path
       d="m 247.1026,319.875 -5.6451,34.15625 h 8.4375 l 4.63797,-28.0625 h 16.5 c 1.61987,0 2.71973,1.31763 2.45201,2.9375 l -0.36154,2.1875 c -0.26772,1.61987 -1.80311,2.9375 -3.42298,2.9375 h -8.5 c -0.47873,0.0398 -0.95076,0.21156 -1.40031,0.53125 -1.19879,0.85251 -1.62595,2.41085 -0.94829,3.46875 l 10.23064,16 h 8.3125 l -9.21795,-14.375 h 2.5625 c 2.03246,0.0237 4.20322,-0.62051 6.14304,-2 2.45025,-1.74248 4.03843,-4.27177 4.53734,-6.84375 l 0.32021,-1.9375 c 0.30494,-1.97696 -0.0394,-3.96694 -1.10159,-5.625 -1.40987,-2.20093 -3.79429,-3.34443 -6.41095,-3.375 z"
       id="path3942"
       style="fill:#000000;fill-opacity:1;stroke:none"
       inkscape:connector-curvature="0" />
    <path
       d="m 281.73498,328.90625 -0.32022,1.9375 z"
       id="path3938"
       style="opacity:0.39768342;fill:#0000ff;fill-opacity:1;stroke:none"
       inkscape:connector-curvature="0" />
    <path
       d="m 135.6651,319.875 -5.6451,34.15625 h 8.625 l 3.98721,-24.125 8.82386,15.625 14.03021,-15.6875 -3.99753,24.1875 h 8.59375 l 5.6451,-34.15625 h -9.03125 l -13.48942,15.0625 -8.51058,-15.0625 z"
       id="rect3003"
       style="fill:#000000;fill-opacity:1;stroke:none"
       inkscape:connector-curvature="0" />
    <path
       d="m 189.2276,319.875 c -4.7543,0 -9.26472,3.8707 -10.05048,8.625 l -2.79931,16.9375 c -0.78575,4.7543 2.45039,8.59375 7.20469,8.59375 h 22.75 l 1.0123,-6.125 h -20.6875 c -1.29209,0 -2.17511,-1.0204 -1.96156,-2.3125 L 185.62023,340 h 23.03125 l 1.00713,-6.09375 h -23.03125 l 0.9245,-5.59375 c 0.21354,-1.29208 1.43902,-2.34375 2.73111,-2.34375 h 20.6875 l 1.00713,-6.09375 z"
       id="rect3007"
       style="fill:#000000;fill-opacity:1;stroke:none"
       inkscape:connector-curvature="0" />
    <path
       d="m 215.4151,319.875 -0.98647,5.96875 h 9.6875 l -4.65863,28.1875 h 8.5625 l 4.65863,-28.1875 h 9.6875 l 0.98647,-5.96875 z"
       id="path3833"
       style="fill:#000000;fill-opacity:1;stroke:none"
       inkscape:connector-curvature="0" />
    <path
       d="m 306.74172,307.59375 -10.6554,4.34375 -0.79021,4.78125 10.66057,-4.375 9.21443,4.375 0.79021,-4.78125 z"
       id="rect4009"
       style="fill:#000000;fill-opacity:1;stroke:none"
       inkscape:connector-curvature="0" />
    <path
       d="m 334.78979,319.875 -5.6451,34.15625 h 8.4375 l 4.63797,-28.0625 h 16.5 c 1.61987,0 2.71973,1.31763 2.45201,2.9375 l -0.36154,2.1875 c -0.26772,1.61987 -1.80311,2.9375 -3.42298,2.9375 h -8.5 c -0.47873,0.0398 -0.95076,0.21156 -1.40031,0.53125 -1.19879,0.85251 -1.62595,2.41085 -0.94829,3.46875 l 10.23064,16 h 8.3125 l -9.21795,-14.375 h 2.5625 c 2.03246,0.0237 4.20322,-0.62051 6.14304,-2 2.45025,-1.74248 4.03843,-4.27177 4.53734,-6.84375 l 0.32021,-1.9375 c 0.30494,-1.97696 -0.0394,-3.96694 -1.10159,-5.625 -1.40987,-2.20093 -3.79429,-3.34443 -6.41095,-3.375 z"
       id="path4014"
       style="fill:#2674ae;fill-opacity:1;stroke:none"
       inkscape:connector-curvature="0" />
    <path
       d="m 399.35941,319.875 c -5.44904,0 -10.56074,4.14914 -11.40378,9.25 l -2.58755,15.65625 c -0.84303,5.10086 2.89719,9.25 8.34623,9.25 h 15.03125 c 5.44904,0 10.56074,-4.14914 11.40377,-9.25 l 2.58755,-15.65625 c 0.84304,-5.10086 -2.89718,-9.25 -8.34622,-9.25 z m 0.54504,6.15625 h 11.90625 c 1.52909,0 2.5743,1.25216 2.32158,2.78125 l -2.69084,16.28125 c -0.25272,1.52909 -1.71183,2.78125 -3.24092,2.78125 h -11.90625 c -1.52909,0 -2.5743,-1.25216 -2.32158,-2.78125 l 2.69084,-16.28125 c 0.25272,-1.52909 1.71183,-2.78125 3.24092,-2.78125 z"
       id="path4016"
       style="fill:#2674ae;fill-opacity:1;stroke:none"
       inkscape:connector-curvature="0" />
    <path
       d="m 375.19635,319.875 -5.6451,34.15625 h 8.5625 l 5.6451,-34.15625 z"
       id="path4018"
       style="fill:#2674ae;fill-opacity:1;stroke:none"
       inkscape:connector-curvature="0" />
  </g>
  <circle
     style="display:inline;fill:#0f80bf;fill-opacity:1;stroke:none;stroke-width:0.82343185;stroke-linecap:round;stroke-miterlimit:4;stroke-dasharray:none;stroke-opacity:1"
     id="path913"
     cx="682.86719"
     cy="2048"
     r="431.3844"
     inkscape:export-xdpi="5.3409448"
     inkscape:export-ydpi="5.3409448" />
  <path
     style="display:inline;fill:#ffffff;fill-opacity:1;stroke:none;stroke-width:2.71075583;stroke-linecap:round;stroke-miterlimit:4;stroke-dasharray:none;stroke-opacity:1"
     d="m 442.87178,1835.965 -68.02054,416.6327 h 129.82798 l 36.9402,-234.3614 91.66575,164.8393 143.46153,-164.8393 -38.70692,234.3614 h 127.08946 c 1.43888,-2.2777 2.53105,-4.1136 4.01615,-6.2089 52.09338,-71.4698 124.56164,-125.6203 207.98151,-155.3028 -70.4225,6.9994 -138.11619,30.8888 -197.33311,69.6401 L 931.64804,1835.965 H 787.50929 L 656.69485,1990.9987 568.68038,1835.965 Z"
     id="path898"
     inkscape:connector-curvature="0"
     sodipodi:nodetypes="cccccccccccccccc"
     inkscape:export-xdpi="5.3409448"
     inkscape:export-ydpi="5.3409448" />
</svg>
